<?xml version="1.0" encoding="UTF-8"?>
<svg version="1.1" xmlns="http://www.w3.org/2000/svg" width="184" height="252">
<path d="M0 0 C60.72 0 121.44 0 184 0 C184 83.16 184 166.32 184 252 C123.28 252 62.56 252 0 252 C0 168.84 0 85.68 0 0 Z " fill="#FCFCFC" transform="translate(0,0)"/>
<path d="M0 0 C0.84968857 -0.00563965 1.69937714 -0.0112793 2.57481384 -0.01708984 C3.50890579 -0.01304138 4.44299774 -0.00899292 5.40539551 -0.00482178 C6.3875856 -0.00832642 7.3697757 -0.01183105 8.38172913 -0.01544189 C11.64034008 -0.02427097 14.89873533 -0.01840587 18.15734863 -0.01165771 C20.41414431 -0.01300403 22.6709397 -0.01494427 24.92773438 -0.01745605 C29.66234086 -0.02040891 34.39687199 -0.01610445 39.13146973 -0.0067749 C45.21159615 0.00461968 51.29154602 -0.00193893 57.37166595 -0.01391983 C62.03323709 -0.02113404 66.69476612 -0.01885252 71.3563385 -0.01366425 C73.59871949 -0.01232653 75.84110426 -0.01397969 78.08348083 -0.01862335 C81.21302473 -0.02368136 84.34227949 -0.0159885 87.47180176 -0.00482178 C88.87293968 -0.01089447 88.87293968 -0.01089447 90.30238342 -0.01708984 C91.15207199 -0.0114502 92.00176056 -0.00581055 92.87719727 0 C93.61756477 0.00075405 94.35793228 0.0015081 95.12073517 0.002285 C96.93859863 0.25396729 96.93859863 0.25396729 98.93859863 2.25396729 C99.16564941 5.32672119 99.16564941 5.32672119 99.13391113 9.23052979 C99.13108124 9.91577728 99.12825134 10.60102478 99.12533569 11.30703735 C99.11413145 13.49785756 99.08902722 15.68827044 99.06359863 17.87896729 C99.05356911 19.36333639 99.04444321 20.84771189 99.03625488 22.33209229 C99.01419157 25.97284989 98.97966039 29.61336885 98.93859863 33.25396729 C99.86543457 33.38802979 100.79227051 33.52209229 101.74719238 33.66021729 C106.46404053 34.53777043 109.42704225 36.34567694 112.42687988 40.13287354 C116.13562646 45.9728435 117.18013005 51.43059137 115.93859863 58.25396729 C113.63427437 64.14166805 109.19620496 68.81676224 103.93859863 72.25396729 C101.00109863 73.12896729 101.00109863 73.12896729 98.93859863 73.25396729 C98.97719964 78.01864912 99.14241407 81.94414183 102.45471191 85.58306885 C103.53686927 86.62395935 104.63947547 87.64390183 105.75891113 88.64459229 C106.62599197 89.47334869 106.62599197 89.47334869 107.5105896 90.31884766 C109.34342764 92.06776562 111.20019872 93.78769058 113.06359863 95.50396729 C114.93204956 97.23631226 116.7935572 98.97406519 118.63803101 100.73193359 C119.78204318 101.82141376 120.94021949 102.89625436 122.11343384 103.95422363 C123.68127441 105.44244385 123.68127441 105.44244385 125.93859863 108.25396729 C125.7857666 111.12017822 125.7857666 111.12017822 124.93859863 113.25396729 C121.55948272 113.67471324 120.28814035 113.52096106 117.53503418 111.41802979 C116.72332764 110.58013916 115.91162109 109.74224854 115.07531738 108.87896729 C114.18908691 107.97662354 113.30285645 107.07427979 112.38977051 106.14459229 C111.02175293 104.71373291 111.02175293 104.71373291 109.62609863 103.25396729 C108.68650871 102.28928926 107.74576516 101.32573343 106.80383301 100.36334229 C104.50382134 98.00435596 102.21625829 95.63450942 99.93859863 93.25396729 C99.83944902 98.84066636 99.76699758 104.42684914 99.71887207 110.01422119 C99.69880234 111.91340053 99.67154012 113.81251843 99.63684082 115.71148682 C99.58811754 118.44715568 99.56558356 121.18200499 99.54797363 123.91802979 C99.52732849 124.76201324 99.50668335 125.6059967 99.4854126 126.47555542 C99.48329087 132.09636826 100.49443412 134.82320201 103.93859863 139.25396729 C103.93859863 139.91396729 103.93859863 140.57396729 103.93859863 141.25396729 C104.59859863 141.25396729 105.25859863 141.25396729 105.93859863 141.25396729 C107.24110356 143.16430784 108.45450914 145.13565392 109.62609863 147.12896729 C112.16225614 151.38064135 114.75384857 155.52894033 117.62609863 159.56646729 C118.18812988 160.36181885 118.75016113 161.15717041 119.32922363 161.97662354 C120.38047299 163.46419241 121.43252158 164.9511969 122.48547363 166.43756104 C125.23349744 170.5210009 126.57650966 173.15067909 125.93859863 178.25396729 C123.64172363 178.51177979 123.64172363 178.51177979 120.93859863 178.25396729 C119.23547363 176.55865479 119.23547363 176.55865479 117.68859863 174.12896729 C117.09691895 173.22017822 116.50523926 172.31138916 115.89562988 171.37506104 C115.24980957 170.3451001 114.60398926 169.31513916 113.93859863 168.25396729 C113.19428222 167.09787315 112.44812337 165.94296355 111.70031738 164.78912354 C110.15287292 162.39803334 108.6163004 160.00047043 107.08703613 157.59771729 C104.83369308 154.09069611 102.5089674 150.64153489 100.13000488 147.21881104 C98.77317118 144.98114759 97.85095703 142.70248261 96.93859863 140.25396729 C93.12158349 141.73098619 91.76059691 143.65887308 89.68859863 147.12896729 C86.56937662 152.23012567 83.3320127 157.22088909 79.98547363 162.17584229 C78.56629703 164.3100239 77.18308261 166.46838934 75.82922363 168.64459229 C75.14344238 169.73256104 74.45766113 170.82052979 73.75109863 171.94146729 C73.13879395 172.93533447 72.52648926 173.92920166 71.89562988 174.95318604 C69.93859863 177.25396729 69.93859863 177.25396729 67.26281738 178.14849854 C66.4958252 178.18330322 65.72883301 178.21810791 64.93859863 178.25396729 C64.60859863 177.92396729 64.27859863 177.59396729 63.93859863 177.25396729 C63.93859863 171.23628465 66.26450657 167.92582652 69.78625488 163.17974854 C72.244836 159.83768454 74.53204007 156.40554368 76.81359863 152.94146729 C77.5804133 151.77777355 78.34868631 150.61503971 79.11828613 149.45318604 C79.53312256 148.80486816 79.94795898 148.15655029 80.37536621 147.48858643 C81.93859863 145.25396729 81.93859863 145.25396729 84.22644043 142.62677002 C92.36458127 132.65652025 92.19518843 123.44236856 92.00109863 110.94146729 C92.00417984 109.02544075 92.01131148 107.10941626 92.02258301 105.19342041 C92.04124013 100.54564112 92.00525755 95.9012738 91.93859863 91.25396729 C91.27859863 91.25396729 90.61859863 91.25396729 89.93859863 91.25396729 C89.71172363 91.81084229 89.48484863 92.36771729 89.25109863 92.94146729 C86.16064461 98.38655294 80.67021589 102.25182859 76.01281738 106.31646729 C73.76569679 108.30215199 73.76569679 108.30215199 71.68859863 111.25396729 C69.93859863 113.25396729 69.93859863 113.25396729 67.25109863 113.62896729 C64.93859863 113.25396729 64.93859863 113.25396729 63.93859863 112.25396729 C63.61437988 109.94146729 63.61437988 109.94146729 63.93859863 107.25396729 C65.73156738 105.19146729 65.73156738 105.19146729 68.12609863 103.25396729 C69.36359863 102.21949463 69.36359863 102.21949463 70.62609863 101.16412354 C71.38922363 100.53377197 72.15234863 99.90342041 72.93859863 99.25396729 C76.33265183 96.01777702 79.3296261 92.60494328 82.31750488 89.00396729 C83.99969843 87.18800895 85.77621131 85.80268106 87.75109863 84.31646729 C90.5778407 82.01896107 91.43025205 80.50306309 91.87609863 76.87896729 C91.89672363 75.68271729 91.91734863 74.48646729 91.93859863 73.25396729 C90.36078613 73.16115479 90.36078613 73.16115479 88.75109863 73.06646729 C84.23366674 72.1037359 82.81602021 70.78908522 79.93859863 67.25396729 C79.27193197 65.92063395 78.6052653 64.58730062 77.93859863 63.25396729 C76.45359863 62.75896729 76.45359863 62.75896729 74.93859863 62.25396729 C72.78869321 56.72921033 73.19616556 49.52493903 75.00109863 44.00396729 C79.75676306 37.25399196 82.73061056 34.59910673 90.93859863 32.25396729 C91.26859863 24.00396729 91.59859863 15.75396729 91.93859863 7.25396729 C61.90859863 7.25396729 31.87859863 7.25396729 0.93859863 7.25396729 C0.93859863 76.55396729 0.93859863 145.85396729 0.93859863 217.25396729 C43.17859863 217.25396729 85.41859863 217.25396729 128.93859863 217.25396729 C129.26859863 218.90396729 129.59859863 220.55396729 129.93859863 222.25396729 C127.08285497 223.68183912 124.66562152 223.37665967 121.47201538 223.3742218 C120.46489823 223.37550344 120.46489823 223.37550344 119.43743527 223.37681097 C117.17721688 223.37846417 114.91707195 223.37294701 112.65686035 223.36749268 C111.04082236 223.36721074 109.42478425 223.36736866 107.80874634 223.36793518 C103.41229962 223.36822292 99.01588 223.36232997 94.6194396 223.35536122 C90.02832774 223.34912379 85.4372153 223.34852358 80.84609985 223.34733582 C72.14799888 223.34422365 63.44991042 223.33601181 54.75181496 223.32598633 C44.85111223 223.31482163 34.95040891 223.30931384 25.04970145 223.30429089 C4.67932685 223.29382911 -15.69103647 223.27623188 -36.06140137 223.25396729 C-37.18640137 218.50396729 -37.18640137 218.50396729 -36.06140137 216.25396729 C-26.16140137 216.25396729 -16.26140137 216.25396729 -6.06140137 216.25396729 C-6.06584259 213.57740021 -6.07028381 210.90083313 -6.07485962 208.14315796 C-6.11566468 182.97917439 -6.14546299 157.81519518 -6.16502571 132.65118599 C-6.17535099 119.71261415 -6.18943517 106.77406654 -6.21228027 93.83551025 C-6.2321759 82.56207224 -6.24510869 71.28865176 -6.24957836 60.01519668 C-6.25219224 54.04256067 -6.25836184 48.06997486 -6.27286148 42.09735489 C-6.286385 36.48158165 -6.29063466 30.86587953 -6.28761673 25.25009155 C-6.28816925 23.18362924 -6.29217769 21.11716468 -6.29981232 19.0507164 C-6.30969182 16.23997004 -6.30739602 13.42949592 -6.3019104 10.6187439 C-6.30773608 9.79190664 -6.31356177 8.96506939 -6.31956398 8.11317647 C-6.28992694 2.53549857 -5.92243554 0.0060319 0 0 Z " fill="#121212" transform="translate(40.0614013671875,18.74603271484375)"/>
<path d="M0 0 C0 0.66 0 1.32 0 2 C0.5775 2.2475 1.155 2.495 1.75 2.75 C4.62772857 4.3487381 6.1125265 5.23619951 8 8 C8.75432244 12.4221288 9.05650285 16.88281839 7.01171875 20.98046875 C4.25566248 24.43620494 1.2396 26.686456 -3.1484375 27.30078125 C-8.17033146 27.32721227 -11.75000971 26.96510951 -16 24 C-18.77679989 20.78475802 -19.89975651 18.78762745 -20.4375 14.5625 C-19.8012139 9.38131315 -18.31419501 5.65334211 -15.0625 1.5625 C-10.22817695 -0.90399135 -5.32434293 -0.3057039 0 0 Z " fill="#F5F5F5" transform="translate(141,58)"/>
<path d="M0 0 C0.66 0.33 1.32 0.66 2 1 C0.02 3.31 -1.96 5.62 -4 8 C-4 4.09161134 -2.49432124 2.88405893 0 0 Z " fill="#B3B3B3" transform="translate(127,59)"/>
</svg>
